<svg width="500" height="500" viewBox="0 0 500 500" fill="none" xmlns="http://www.w3.org/2000/svg">
<mask id="mask0_52_1540" style="mask-type:alpha" maskUnits="userSpaceOnUse" x="0" y="0" width="500" height="500">
<path d="M499 1V499H1V1H499Z" fill="#C5DCF2" stroke="#C5DCF2" stroke-width="2"/>
</mask>
<g mask="url(#mask0_52_1540)">
<path d="M499 1V499H1V1H499Z" fill="#C5DCF2" stroke="#C5DCF2" stroke-width="2"/>
<g filter="url(#filter0_i_52_1540)">
<circle cx="250.5" cy="249.5" r="22.5" fill="#8995C9"/>
</g>
<g filter="url(#filter1_i_52_1540)">
<circle cx="250.138" cy="250.138" r="180" transform="rotate(0.363514 250.138 250.138)" fill="#C5DCF2" fill-opacity="0.05"/>
</g>
<circle cx="250.465" cy="250.469" r="233.812" transform="rotate(0.363514 250.465 250.469)" stroke="#8995C9" stroke-width="3" stroke-dasharray="3 3"/>
<circle cx="250.325" cy="250.327" r="227.485" transform="rotate(0.363514 250.325 250.327)" stroke="#8995C9" stroke-width="3" stroke-dasharray="3 3"/>
<circle cx="250.177" cy="250.178" r="221.15" transform="rotate(0.363514 250.177 250.178)" stroke="#8995C9" stroke-width="3" stroke-dasharray="3 3"/>
<circle cx="250.029" cy="250.027" r="214.814" transform="rotate(0.363514 250.029 250.027)" stroke="#8995C9" stroke-width="3" stroke-dasharray="3 3"/>
<circle cx="249.878" cy="249.873" r="208.475" transform="rotate(0.363514 249.878 249.873)" stroke="#8995C9" stroke-width="3" stroke-dasharray="3 3"/>
<circle cx="250.497" cy="250.501" r="202.138" transform="rotate(0.363514 250.497 250.501)" stroke="#8995C9" stroke-width="3" stroke-dasharray="3 3"/>
<circle cx="250.347" cy="250.349" r="195.8" transform="rotate(0.363514 250.347 250.349)" stroke="#8995C9" stroke-width="3" stroke-dasharray="3 3"/>
<circle cx="250.197" cy="250.197" r="189.463" transform="rotate(0.363514 250.197 250.197)" stroke="#8995C9" stroke-width="3" stroke-dasharray="3 3"/>
<circle cx="250.047" cy="250.045" r="183.125" transform="rotate(0.363514 250.047 250.045)" stroke="#8995C9" stroke-width="3" stroke-dasharray="3 3"/>
<circle cx="249.853" cy="249.849" r="240.156" transform="rotate(0.363514 249.853 249.849)" stroke="#8995C9" stroke-width="3" stroke-dasharray="3 3"/>
<circle cx="250.009" cy="250.006" r="246.5" transform="rotate(0.363514 250.009 250.006)" stroke="#8995C9" stroke-width="3" stroke-dasharray="3 3"/>
<circle cx="250.165" cy="250.164" r="252.844" transform="rotate(0.363514 250.165 250.164)" stroke="#8995C9" stroke-width="3" stroke-dasharray="3 3"/>
<circle cx="250.321" cy="250.322" r="259.187" transform="rotate(0.363514 250.321 250.322)" stroke="#8995C9" stroke-width="3" stroke-dasharray="3 3"/>
<circle cx="250.477" cy="250.481" r="265.531" transform="rotate(0.363514 250.477 250.481)" stroke="#8995C9" stroke-width="3" stroke-dasharray="3 3"/>
<circle cx="250.333" cy="250.335" r="290.906" transform="rotate(0.363514 250.333 250.335)" stroke="#8995C9" stroke-width="3" stroke-dasharray="3 3"/>
<circle cx="250.189" cy="250.188" r="316.281" transform="rotate(0.363514 250.189 250.188)" stroke="#8995C9" stroke-width="3" stroke-dasharray="3 3"/>
<circle cx="250.189" cy="250.188" r="316.281" transform="rotate(0.363514 250.189 250.188)" stroke="#8995C9" stroke-width="3" stroke-dasharray="3 3"/>
<circle cx="250.201" cy="250.201" r="348" transform="rotate(0.363514 250.201 250.201)" stroke="#8995C9" stroke-width="3" stroke-dasharray="3 3"/>
<circle cx="250.045" cy="250.042" r="341.656" transform="rotate(0.363514 250.045 250.042)" stroke="#8995C9" stroke-width="3" stroke-dasharray="3 3"/>
<circle cx="249.888" cy="249.883" r="335.312" transform="rotate(0.363514 249.888 249.883)" stroke="#8995C9" stroke-width="3" stroke-dasharray="3 3"/>
<circle cx="250.499" cy="250.503" r="328.969" transform="rotate(0.363514 250.499 250.503)" stroke="#8995C9" stroke-width="3" stroke-dasharray="3 3"/>
<circle cx="250.343" cy="250.344" r="322.625" transform="rotate(0.363514 250.343 250.344)" stroke="#8995C9" stroke-width="3" stroke-dasharray="3 3"/>
<circle cx="250.033" cy="250.031" r="309.938" transform="rotate(0.363514 250.033 250.031)" stroke="#8995C9" stroke-width="3" stroke-dasharray="3 3"/>
<circle cx="249.877" cy="249.872" r="303.594" transform="rotate(0.363514 249.877 249.872)" stroke="#8995C9" stroke-width="3" stroke-dasharray="3 3"/>
<circle cx="250.489" cy="250.493" r="297.25" transform="rotate(0.363514 250.489 250.493)" stroke="#8995C9" stroke-width="3" stroke-dasharray="3 3"/>
<circle cx="250.177" cy="250.177" r="284.562" transform="rotate(0.363514 250.177 250.177)" stroke="#8995C9" stroke-width="3" stroke-dasharray="3 3"/>
<circle cx="250.021" cy="250.019" r="278.219" transform="rotate(0.363514 250.021 250.019)" stroke="#8995C9" stroke-width="3" stroke-dasharray="3 3"/>
<circle cx="249.865" cy="249.86" r="271.875" transform="rotate(0.363514 249.865 249.86)" stroke="#8995C9" stroke-width="3" stroke-dasharray="3 3"/>
</g>
<defs>
<filter id="filter0_i_52_1540" x="228" y="227" width="45" height="45" filterUnits="userSpaceOnUse" color-interpolation-filters="sRGB">
<feFlood flood-opacity="0" result="BackgroundImageFix"/>
<feBlend mode="normal" in="SourceGraphic" in2="BackgroundImageFix" result="shape"/>
<feColorMatrix in="SourceAlpha" type="matrix" values="0 0 0 0 0 0 0 0 0 0 0 0 0 0 0 0 0 0 127 0" result="hardAlpha"/>
<feOffset/>
<feGaussianBlur stdDeviation="1.5"/>
<feComposite in2="hardAlpha" operator="arithmetic" k2="-1" k3="1"/>
<feColorMatrix type="matrix" values="0 0 0 0 0 0 0 0 0 0 0 0 0 0 0 0 0 0 0.25 0"/>
<feBlend mode="normal" in2="shape" result="effect1_innerShadow_52_1540"/>
</filter>
<filter id="filter1_i_52_1540" x="70.1383" y="70.1382" width="360" height="360" filterUnits="userSpaceOnUse" color-interpolation-filters="sRGB">
<feFlood flood-opacity="0" result="BackgroundImageFix"/>
<feBlend mode="normal" in="SourceGraphic" in2="BackgroundImageFix" result="shape"/>
<feColorMatrix in="SourceAlpha" type="matrix" values="0 0 0 0 0 0 0 0 0 0 0 0 0 0 0 0 0 0 127 0" result="hardAlpha"/>
<feOffset/>
<feGaussianBlur stdDeviation="2"/>
<feComposite in2="hardAlpha" operator="arithmetic" k2="-1" k3="1"/>
<feColorMatrix type="matrix" values="0 0 0 0 0 0 0 0 0 0 0 0 0 0 0 0 0 0 0.4 0"/>
<feBlend mode="normal" in2="shape" result="effect1_innerShadow_52_1540"/>
</filter>
</defs>
</svg>
